<?xml version="1.0" encoding="utf-8"?>
<!-- Generator: Adobe Illustrator 20.0.0, SVG Export Plug-In . SVG Version: 6.00 Build 0)  -->
<svg version="1.1" id="Layer_1" xmlns="http://www.w3.org/2000/svg" xmlns:xlink="http://www.w3.org/1999/xlink" x="0px" y="0px"
	 viewBox="0 0 500 500" style="enable-background:new 0 0 500 500;" xml:space="preserve">
<style type="text/css">
	.st0{fill:#D8D8D8;}
</style>
<path class="st0" d="M480,62.6c-7.4-27.9-13.2-56.2-24.7-82.8c-23.2-53.6-63.2-98.7-111.7-130.9c-25.7-17-53.8-30.4-83.3-39.5
	c-30.2-9.3-62.8-16.3-94.2-19.5c-35-3.6-70.5-1.6-104.7,6.3c-55.1,12.5-106,40.5-146.3,80.2c-41.8,41.1-78.9,87-99.4,142.5
	s-27.8,119.3-18.8,177.9c4,26,12.2,51.3,24.8,74.4c6,11,13,20.9,18,32.4c5.7,13,12.4,25.6,20.1,37.6c58.9,92,169.2,151.2,278,152.1
	c35.2,0.3,70.2-5.5,103.2-17.1c82-14.6,160-69.3,195.7-142.7c0.9-1.2,1.8-2.4,2.7-3.6c35.7-50.3,46.3-107.6,50.6-168
	C492.4,128.5,488.6,94.9,480,62.6z M453.5-6.2c-17.3-34.1-39.9-65.4-66.5-92.9c-28.3-29.3-61.1-54.2-97.2-73.2
	C363.2-140.7,424.6-81.4,453.5-6.2z M216.6-193.7c65.5,17.7,124.6,55.5,170.7,105c23.7,25.5,44,54.2,59.9,85.2
	c7.6,14.9,14.2,30.3,19.5,46.1c5.3,15.7,4.7,34.8,4.4,51.2c-0.5-1.5-1.1-3-1.6-4.5c-3.8-33.7-13.9-66.6-30.3-96.5
	c-13.2-24.1-30.2-46-50-65.1c-10.2-9.8-21.9-17.9-31.6-28.2c-11.6-12.2-23.9-23.8-37-34.3c-41.7-33.5-91.1-55.4-144.4-61.4
	c-5.9-0.7-11.8-1.1-17.8-1.4C177.8-198.1,197.4-196.8,216.6-193.7z M448.8,91.6c-2-6.4-4.2-12.7-6.5-18.9
	c-1.8-8.4-3.8-16.8-6.1-25.1c-2.6-9.5-5.5-19-8.7-28.4c14.1,22.4,26,46.1,34.8,71.1c2.9,24.6,2.3,49.8-1.9,74.9
	c-0.9,3.1-1.8,6.2-2.8,9.2c-0.3-1.7-0.7-3.4-1.1-5C457.8,143.1,456.5,116.7,448.8,91.6z M394,326.5c-6.8,11.8-13,20.2-24.2,28.1
	c-10.5,7.5-21.5,14.3-32.7,20.6c5.2-7.3,10.2-14.8,14.7-22.5c21-15.6,40-33.9,56.4-54.7C404,307.7,399.3,317.3,394,326.5z
	 M394,344.4c-1.9,3-4,6-6,8.9c-5.7,6.3-11.8,12.2-18.3,17.8C377.5,361.7,384.9,352.1,394,344.4z M247.1,409.6
	c-11.1,7.5-25.7,9.2-38.8,11.7c-13.4,2.6-26.8,4.6-40.4,6c-4.4,0.5-8.8,0.8-13.3,1.2c-22.2-2.7-44-7.5-65-14.1
	c-0.3-0.1-0.5-0.2-0.8-0.4c21.1,3.3,42.5,4.8,63.8,4.5c36.8-0.6,73.1-6.8,107.3-18.3C255.8,403.5,251.5,406.6,247.1,409.6z
	 M272.9,411.5c-12,7.5-24.8,13.1-38.2,17.3c-1.8,0.2-3.7,0.4-5.5,0.6c7.1-4.2,13.7-8.6,21.7-10.9
	C258.2,416.4,265.5,414.1,272.9,411.5z M220.3,426.2c-2.6,1.4-5.3,3-8.1,4.5c-6.2,0.3-12.4,0.4-18.6,0.4
	C202.6,429.7,211.5,428.1,220.3,426.2z M99,442.4c-6.6-2.3-13.1-4.9-19.6-7.6c14.2,1.4,28.5,7.7,42.9,9.8c17,2.4,34.3,3.1,51.4,2.1
	c-12.2,4-23,6.7-35.7,5.4C124.8,450.6,111.5,446.7,99,442.4z M116.1,456.4c-0.5,0-1,0-1.4,0c-0.3-0.1-0.6-0.3-0.9-0.4
	C114.5,456.1,115.3,456.3,116.1,456.4z M-131.6,61.6c0.1,4.3,0.2,8.6,0.5,12.8c-5.1,14.2-8.8,28.9-11.3,43.7
	C-143.6,99.4-138.8,80.1-131.6,61.6z M-141.3,70.8c1.4-13,3.7-26,6.8-38.7c1.5-3.3,3-6.7,4.6-10c-0.9,7.9-1.5,15.9-1.7,23.9
	C-135.2,54-138.5,62.2-141.3,70.8z M-134.8,114.2c1.4-7.2,3.1-14.4,5.1-21.5c0.8,7.5,1.8,15,3.1,22.5c-0.2,12.5,0.2,25.1,1.5,37.6
	c2.4,23.9,3.1,50.6,10.6,73.6c-11.3-23.3-19.3-48.1-23.8-73.6C-140.5,140.7-137,126.2-134.8,114.2z M-42.2-76
	c6.3-6.4,12.8-12.5,19.5-18.4c91.1-55,213.2-59.7,305.9-6.6c34.7,19.8,65,47.8,86.2,81.5c-13.3-16.4-28.7-31.2-45.2-44.3
	c-46.2-36.7-101.1-62-159.9-69.4c-54.7-6.9-112.3,1.5-160,30.2C-18.4-89.4-38.3-71.2-54-49.9c-7.7,10.4-12.8,24-21.4,33.3
	c-11.2,12-21.3,25.1-30.1,39c2.9-10,6.1-20,9.9-29.7c3.4-8.9,10.3-17,15.9-24.7C-68.3-47.5-55.7-62.3-42.2-76z M-76-48.3
	c1.9-3.4,3.9-6.8,5.9-10.1c3.6-3.4,7.3-6.7,11.1-9.9C-64.9-61.9-70.6-55.2-76-48.3z M408.7,78.5c1,5.2,1.8,10.5,2.3,15.9
	c5.5,56.7-5.1,114.9-24.7,168c4.5-21.4,7.1-43.1,7.7-64.9c0-1.4,0.1-2.8,0.2-4.2C406.5,156.4,412,117.3,408.7,78.5z M417.6,91.5
	c0.6,1.1,1.2,2.2,1.8,3.3c4.5,15,7.8,30.3,9.9,45.8c2.3,17.5-2.9,36.9-7,53.9c-4.2,17.7-9.7,35-16.4,51.9
	c-6.3,15.7-12.9,34.8-24.8,47.1c24-53.1,38.2-111.8,38.2-170.2C419.3,112.7,418.7,102.1,417.6,91.5z M38.8,409.1
	c-0.8-0.7-1.6-1.4-2.4-2.1c6.3,0.9,12.7,1.5,19.1,2c6,2.5,12.1,4.9,18.2,7.1c4.1,1.5,8.3,2.9,12.4,4.2c7.3,3.5,14.8,6.6,22.5,9.3
	c-14-0.4-26.5-1.3-39.6-6.4C58.6,419.3,48.5,414.5,38.8,409.1z M63.4,436.7c-7-2.2-13.9-4.7-20.8-7.3c4.6,0.9,9.2,1.7,13.8,2.5
	C58.7,433.5,61.1,435.1,63.4,436.7z M-25.4,338.8c0.1,0,0.1,0.1,0.2,0.1c15.5,10.5,28.6,22,42.4,34.7c9.4,8.6,19.3,16.7,29.8,24
	c-1.6-0.6-3.1-1.3-4.6-2c-13.8-6.6-27.1-14.1-40-22.3C-7.5,362.3-16.7,350.8-25.4,338.8z M-1.2,379.7c-2-0.9-3.9-1.9-5.9-2.9
	c-3.1-2.7-6.1-5.5-9.1-8.3C-10.7,372-5.1,375.5-1.2,379.7z M-62.7-5.9c7.2-12.7,16.2-29,28-37.9C-10.3-62.2,17-76.6,45.4-87.7
	c16.9-6.5,34.6-11.1,52.5-14c-39,7.6-76.8,29-107.9,53.3c-29.5,23-54.2,52.2-71.8,85.2C-76.7,22.1-70.4,7.7-62.7-5.9z M-75.9,4.5
	c3.6-9.1,6.9-18,13.9-24.9C-67.2-12.4-71.7-4-75.9,4.5z M-58.9,271.3c10,14.9,18.3,30.6,28.2,45.6
	C-41.8,302.9-51.1,287.4-58.9,271.3z M-33.8,324.1c-1.4-1-2.7-2.1-4-3.2c-3.7-5.6-7.3-11.3-10.8-17C-44,310.9-39,317.6-33.8,324.1z
	 M-47.6,272.8c-7.6-16.4-13.7-33.4-18.2-50.9C-36.6,278,9.2,325.6,66,354c-30.3-8.9-58.7-24-82.5-44.8
	C-28.3,298.8-41,287.1-47.6,272.8z M-81.5,233.5c3.4,11.4,7.6,22.7,12.6,33.7c-14.9-29.7-27.1-60.8-36.5-92.6
	c-0.2-4.4-0.3-8.8-0.3-13.1c0-12.6,1-25.1,2.8-37.6C-102.8,162.6-92.2,197-81.5,233.5z M-95.8,130.2c1.9,13,3.1,24.9,3.6,38
	C-94.3,155.7-95.5,143-95.8,130.2z M-84.9,176.3c3.7,11.4,6.9,22,9.3,33.7c2.7,12.9,6.2,25.6,10.5,38.1
	C-77.4,225.2-83,202.1-84.9,176.3z M184.5-89.8C104.7-96.8,25.4-61-23.1,2.6C-74.5,69.9-83.6,158.7-49.9,236
	c-7.7-12.7-14.4-25.9-20.1-39.6c-5.2-12.4-4.7-29.5-4.7-42.8C-74.7,87-47.1,19.8-0.1-27.5C45-72.9,120.4-109.7,184.5-89.8z
	 M-8.3-69.6c16-12.6,33.8-22.8,52.9-30.2c55.2-21.3,120.4-23.9,175.9-2.4C142-123.1,61.5-110.2-8.3-69.6z M-81.1,165.3
	c-7.9-27.1-1.3-57.2,6.5-83.9s20-52.3,35.2-75.6c14-21.4,31-40.9,50.6-57.3c21-17.6,44.2-28.8,70.4-36.8
	C-21.1-50-85.9,57.2-81.1,165.3z M43.6,333.2c-22.8-14.7-48.5-33.9-63.5-56.6c-35.3-52.7-52.3-117.2-39-180
	c12.2-57.9,48.1-109.4,97.2-142c24-15.9,51-27.4,79.2-33.4c15.1-3.2,30.5-4.8,45.9-4.8c16.1,0,38.1-0.4,52.7,6.9
	C270-49.7,319.6-2,346.9,51.7c24.3,47.8,30,101.7,15.9,153.7c-14,51.8-47.7,98.8-94.5,126c-45.7,26.5-100.7,36.6-153.1,32
	C89.8,361,64.8,346.8,43.6,333.2z M188.6-95.7c38.9,3.4,77.9,14.7,106.1,42.6c-15.9-9.5-32.8-17.5-50.3-23.6c-8.4-3-17-5.5-25.8-7.6
	C208.5-86.7,198.8-92.4,188.6-95.7z M290-74.4c-8-4.3-16.2-8.3-24.5-12c-8.3-5.7-17.1-10.8-26.1-15.3c-32-15.8-67.9-22.5-103.4-22.3
	c-36.5,0.2-73.6,7.6-106.8,23c-33.6,15.7-56.8,40.8-84,64.5C-31-72.8,4.1-100,44.9-114.7c101.6-36.6,217,1,293.7,72.5
	C323.4-54.4,307.1-65.1,290-74.4z M-74.1,37c13.7-24.8,31.5-47.3,52.4-66.4C-58.6,12.8-82.7,66-90,121.5
	c-1.8-15.2-2.4-30.2-1.5-45.4C-86.8,62.6-81,49.5-74.1,37z M-97.2,61c-2.5,20.7-9.6,40.3-12.6,61.1c-1.3,8.9-2.1,17.8-2.5,26.7
	c-2.9-11.7-5.3-23.6-7.3-35.6c0.4-18.1,2.3-36.1,5.5-53.9c3.9-21.5,18.2-40.5,31.8-57.3C-89.8,21.1-94.8,40.8-97.2,61z
	 M-112.2,176.2c1.3,23.7,5.5,47.3,12.5,70.1c-7.9-19.3-12.3-37.6-14.2-58.3c-0.9-9.9-2.2-19.6-3.3-29.4
	C-115.6,164.5-114,170.4-112.2,176.2z M-101.7,208.2c12.2,33.9,27.6,66.7,46.1,97.6c-3.5-3.3-7-6.6-10.3-10
	c-5.3-5.4-11.5-11-14.6-18c-3.3-7.4-6.3-14.8-9-22.4C-94.8,240-98.9,224.2-101.7,208.2z M-42.7,326.1c7.4,11.1,15.2,21.9,23.5,32.4
	c-8.1-6-16-12.4-23.7-19c-8.5-10.7-16.3-22-23.2-33.9C-58.7,312.9-50.8,319.7-42.7,326.1z M67.9,402.8
	c-11.4-6.7-22.3-14.3-32.6-22.7c23.1,11.7,48.2,19.1,73.8,22.5C95.5,404,81.3,404.5,67.9,402.8z M25.2,366.6
	c46.2,20.1,96,28.6,145.6,26.1c-8.4,2-16.8,3.8-25.3,5.2C103.5,398.1,61.9,388.8,25.2,366.6z M67.2,374.4
	c-19.7-5.8-38.8-13.4-57.1-22.8c-17.4-8.9-27.9-27.3-38.2-43.5c29.2,28,66,46.9,105.3,56.1c45.4,10.6,89.7,21.5,136.7,15.2
	c-2.2,0.9-4.5,1.7-6.7,2.5c-9.7,1.6-19.4,2.8-29.2,3.6C140.7,388.3,103,384.9,67.2,374.4z M207.2,388.8c11.9-1.9,23.7-4.5,35.4-7.7
	c-16.2,5.4-32.9,9.7-49.8,12.5C197.7,392.1,202.5,390.5,207.2,388.8z M241.2,374.3c2.2-1.1,4.5-2.3,6.7-3.4
	c46.6-17.2,84.5-55.2,110.3-97.2c-7.6,18.3-16.5,36.2-27.4,52.8c-5.7,8.8-10.3,14.8-19.6,19.8c-8.3,4.5-16.8,8.6-25.5,12.4
	C271.2,364.9,256.3,370.1,241.2,374.3z M290.2,335.4c-11.2,9.2-23.3,17.4-35.9,24.7c-35.5,15.1-74.8,17.7-114,11
	c65.5-0.3,137.6-22.8,180.7-74.6c45.5-54.6,68.5-130.5,50.6-199.9c-22.6-87.5-66.2-126-130-167c25.9,9,51.5,21.6,72.8,39
	c16.7,20.7,30.5,43.8,41.3,68.1c11.9,26.6,20.2,54.6,25.3,83.3c5.3,29.8,3.2,58.3-2.8,87.9c-1.2,6.2-2.9,12.4-4.9,18.5
	C353.8,268.1,325.5,306.3,290.2,335.4z M346.3,3.2c16.4,23.5,26.9,50.7,32.7,78.6c-1.1-3.7-1.9-7.5-3.1-11.2
	C368.5,47.2,358.6,24.5,346.3,3.2z M374.7,42.2c-6.3-16.4-14.6-32-25-46.2c-11.2-15.4-25.7-27.3-38.2-41.4
	C370.9,3,404.8,83.4,393.1,159.4C390.1,119.1,389.6,80.5,374.7,42.2z M402.4,110.8c-4.4-55.3-33-112.1-72.6-149.3
	c19.9,15.6,37.2,34,51.7,54.7c5,7.1,9.3,14.3,13,21.6C401,61.6,403.4,86.2,402.4,110.8z M-94.3-28.4C-103.4-8.6-114,10-123.7,29.3
	c0.2-1.8,0.3-3.6,0.5-5.4c1.3-11,2.5-19.6,8.5-29c5.8-9,12-17.6,18.8-25.9c2.1-2.6,4.3-5.1,6.5-7.6C-91-35.2-92.7-31.8-94.3-28.4z
	 M-111.8,19.2c-2.2,7.3-4.1,14.7-5.8,22.1c-1.4,6-4.4,11.8-7.2,17.6c-0.1-4.6,0-9.3,0.2-13.9C-120.5,36.1-116.1,27.4-111.8,19.2z
	 M-124.1,75.6c0.3-0.7,0.5-1.4,0.8-2.2c-0.2,1.6,0.5,14.6,0.3,16.1c0-0.4-0.6-3.6-0.9-6.8C-124.2,79.5-124.1,76.1-124.1,75.6z
	 M-107.1,254.4c11.1,17.7,20.8,36.3,32.1,53.9c-14.4-15.7-27.5-32.6-38.7-50.6c-7.8-12.5-14.6-25.6-20.4-39.1
	c-2.2-11.7-3.7-23.5-4.4-35.4C-131.5,208.3-120.9,232.3-107.1,254.4z M-93.6,297.2c12.9,15.7,27,30.4,42.1,43.9
	c6,7.5,12.4,14.8,19,21.8c-14.5-8.9-28.3-19.1-41-30.5c-15.1-13.6-28.4-28.9-39.9-45.5c-5.5-12.7-10.2-25.9-14-39.2
	C-117.7,265.1-106.4,281.6-93.6,297.2z M-33.6,370.4c6.3,3.8,12.9,7.3,19.5,10.7c3.8,3.5,7.7,6.9,11.7,10.3
	c-9.2-2.6-18.2-5.6-27-9.1c-6.8-2.7-13.4-5.8-19.9-9.2c-3.8-2-12.8-9.6-18.4-11.2c-8.3-10.2-15.9-20.8-22.9-31.9
	c-2.6-4.1-5-8.3-7.4-12.5C-79.5,338.1-57.6,356-33.6,370.4z M-35.4,387.6c-0.1-0.1-0.2-0.1-0.2-0.2c10.8,4.6,21.8,8.5,33.1,11.6
	c4.6,1.3,9.2,2.4,13.8,3.4c9,6.8,18.2,13.2,27.8,19.1c-12.8-2.7-26.2-5.4-37.8-11.6C-11.4,403.2-23.6,395.8-35.4,387.6z
	 M-31.5,398.5c-1.7-0.6-3.2-1.6-4.5-3.1C-34.5,396.5-33,397.5-31.5,398.5z M83.9,449.3c4,2.2,8,4.3,12.1,6.3
	c-39.6-3.5-77.6-19-109.8-42.3C19.1,425.8,50.4,440.1,83.9,449.3z M118.6,436.9c4.2,0,8.4-0.2,12.6-0.3c4.6,1.2,9.2,2.2,13.8,3.1
	C136.2,439.3,127.4,438.3,118.6,436.9z M106.8,409.4c4.6-0.3,9.2-0.6,13.8-1.1c8.2-0.8,16.4-2,24.5-3.3c1.7,0,3.3,0,5-0.1
	c53.1-1.2,105.4-17.1,151.9-42.3c-8.3,8.9-17.1,17.2-26.3,25.1C222.4,408.6,163.5,415.5,106.8,409.4z M300.5,374.6
	c6.2-6.3,12.2-12.9,17.8-19.7c5.5-6.7,14.9-10.7,22-15.7c5.3-3.8,10.5-7.8,15.6-11.9c-6.7,11.3-13.9,21.2-22.3,30.7
	c-12.1,7.9-24.7,15-37.7,21.1C297.4,377.6,299,376.1,300.5,374.6z M335.7,331.4c23.7-36,35.9-75.8,50.3-115.9
	c-1.7,22.7-5.7,45.3-11.9,67.2c-2.5,8.6-4.6,22.4-11.5,28.3C354,318.4,345,325.2,335.7,331.4z M376.2,317.9
	c6.9-10,12.7-19.7,20.9-28.6c8.7-9.4,16.9-19.3,24.5-29.7c-1.3,4.7-2.7,9.4-4.2,14c-1.4,2.2-2.9,4.4-4.4,6.6
	c-13.7,19.8-29.8,38.1-47.9,54c-1.4,1.2-2.8,2.4-4.2,3.5C365.9,330.9,371.6,324.5,376.2,317.9z M408.5,259.1
	c10.3-23.8,18.2-48.6,23.3-74c-0.2,11.3,0.6,24.9-3.5,35.5C423.2,234.1,416.4,247,408.5,259.1z M425.8,92
	c-4.5-14.5-10-28.7-16.7-42.4c9.5,16.3,18.7,33.8,21.9,52.3C429.3,98.6,427.5,95.3,425.8,92z M394.7,15.8
	C388-2,379.1-18.9,368.1-34.3c-31.9-44.8-79.2-77.6-131.1-95c-75.6-25.4-160.3-19.9-232.3,12.9c13.9-10.1,28.5-19.2,43.8-27
	c9.4-4.8,19.1-9.1,29-13c9.3-3.6,18.9-4,28.8-4.4c19.5-0.8,39.1,0.5,58.3,3.7c41.5,6.9,81.3,22.5,117.6,43.4
	c69,39.8,139.9,107.3,148.2,190.8C421.2,54.8,408.2,35.3,394.7,15.8z M39.5-156.9c14-5.7,28.7-9.9,43.7-12c4.8-0.7,9.6-1.1,14.4-1.6
	C78.5-164.9,58.7-162.7,39.5-156.9z M115.8-168.1c5.4-1.2,10.9-2.3,16.4-3.2c17.5,0.7,34.9,3,51.9,6.8c16.3,3.7,32.6,7.3,45.7,18.1
	C193.5-160.3,154.8-168.3,115.8-168.1z M240.7-145.7c35,15.3,67.3,36.3,96.3,61c-14-11.3-28.9-21.6-44.3-30.9
	c-8-4.8-16.2-9.4-24.5-13.6c-5.8-3-17.3-5.9-21.5-10.6C244.9-142,242.7-143.8,240.7-145.7z M386.8-35.5
	c11.5,13.3,23.1,26.1,28.8,42.9C407.4-7.9,397.6-22.2,386.8-35.5z M408.7-27.9c-6.2-12.7-13.3-24.9-21.3-36.4
	c34.2,34,57.6,76.2,68.9,121.5c-4-8.4-8.2-16.7-12.8-24.9c-5.9-10.5-12.4-20.8-19.2-30.8C417.8-7.9,413.7-17.5,408.7-27.9z
	 M389.3-48.5c2.9,4.9,5.7,10,8.3,15.1c-25.4-30.5-54.6-57.8-87.1-80.7c-14.6-10.2-29.8-19.5-45.6-27.7c15.4,6.3,30.5,13.4,45.1,21.4
	c15.3,8.4,33.6,17.6,46.7,29.7C369-77.7,380-63.6,389.3-48.5z M210.9-166.7c-3.9-2-7.9-4-12-5.8c45,5.6,87.9,24,124.1,51.4
	C288.3-141.2,250.3-156.8,210.9-166.7z M217.8-176.6c-10.3-2.1-20.7-3.5-31.2-4.2c-11-0.7-21-2.5-31.9-4.2
	c-21.5-3.5-43.5-4-65.2-2.2c31.8-4.6,64-5.8,96-1c29.7,4.4,57.7,14.1,83.6,27.9C252.7-167.5,235.5-173.1,217.8-176.6z M141.9-179.7
	c-6.5,0.8-13.1,1.1-19.6,1.2c-30.4-0.4-60.6,3-89.9,10.9c1.4-0.7,2.8-1.4,4.3-2C67.3-183.4,109-183.3,141.9-179.7z M41.8-150.4
	c3.5-1,7.1-1.8,10.6-2.7C23.1-139-3.9-120.5-28.2-99c-9.7,5.9-19,12.4-28,19.4c8.3-11.3,17.3-22.1,27.5-32
	c9.4-9.1,19.3-18.5,31.2-24.1C15.3-141.5,28.4-146.5,41.8-150.4z M-1.8-142.5c-15,10.3-31.5,18.1-46.3,28.8
	c13.8-12.7,28.7-24.1,44.5-34.1c9.4-4,18.9-7.4,28.6-10.4C15.7-153.6,6.8-148.4-1.8-142.5z M-6.4-154.2c-16.2,6.9-31.9,15.2-47,25.2
	c3.5-3.5,7.2-6.7,11-9.9c14-7.8,28.4-14.5,42.5-20.1c1-0.4,1.9-0.7,2.9-1.1C-0.2-158.1-3.3-156.2-6.4-154.2z M-40.5-129.5
	c-4.3,3.6-8.5,7.3-12.6,11.1C-68.4-104.1-81.2-87.8-94.7-72c4-7.8,8.4-15.4,13.2-22.7C-71.9-109.1-56.4-120.3-40.5-129.5z M-78-79.2
	c12.8-12.6,26.6-24,41.4-34.1C-51.7-97.8-65-80.6-76.2-62.2c-5.2,4.9-10.3,10.1-15.1,15.4c-8.9,9.8-17.1,20.3-24.6,31.2
	c1.1-4.2,2.3-8.4,3.5-12.6c1.1-2.2,2.3-4.5,3.4-6.7C-100.4-50.7-90.9-66.5-78-79.2z M-111.4-52c-14.8,19.1-27.5,40-37.7,61.9
	c10.5-34.4,27.9-66.5,52.6-93.4C-102.1-73.3-107.1-62.8-111.4-52z M-121.2-26c-8.4,17.8-15.1,36.4-19.9,55.5
	c-9.2,20.8-15.9,42.6-19.8,65c0-1.1-0.1-2.1-0.1-3.2c0-12.1,0.8-24.1,2.3-36C-150.1,26.7-137.4-0.8-121.2-26z M-148.4,131.2
	c2,20.3,2.4,40.4,4,60.6c-2.4-7.4-4.6-14.8-6.5-22.4C-151,156.6-150.1,143.9-148.4,131.2z M-153.4,117.8c-1.6,9.1-2.7,18.2-3.4,27.4
	c-0.8-4.3-1.3-8.6-1.1-12.6c0.8-21.6,4.2-43.1,10.1-63.9C-149.5,85.1-150.5,101.5-153.4,117.8z M-152.9,222.8
	c2.2,13.6,5.1,27.1,8.5,40.4c-10.5-22.1-18.2-45.6-22.6-69.7c-5.9-32.2-6.1-65-1.1-96.9c0.1,5,0.3,10,0.6,15
	c1.1,16.2,1.9,32.2,2.9,48.4C-163.2,181.3-159.3,202.4-152.9,222.8z M-146,220.8c-1-6.6-2-13.3-2.7-19.9c2.3,6.5,4.9,12.8,7.6,19.1
	c0.8,4.5,1.6,9.1,2.7,13.6c1.5,6.3,3.2,12.5,5,18.7C-138.3,242.2-142.5,231.6-146,220.8z M-119.4,290.7
	c6.6,15.1,14.3,29.7,23.1,43.7c-8.9-9.9-17.3-20.3-24.9-31.2c-7.1-10.2-10.5-20.7-13.9-32.5c-1.1-3.9-2.2-7.8-3.1-11.7
	C-132.7,269.9-126.4,280.5-119.4,290.7z M-55.6,386.1c-12.7-7.3-28-15.7-37.1-27.5c-8.4-10.9-15.6-22.8-21.9-35
	C-96.8,346-75.5,365.6-55.6,386.1z M-34.6,405.9c10.5,8.9,21.7,17.1,33.5,24.3c22.2,13.6,46.7,23.7,72.2,29
	c13.9,2.9,28,4.3,42.2,4.2c15.4,6.2,31.4,10.8,47.7,13.6c-84.2,8.8-170.7-29.3-230-90.8C-58.2,392.9-44.3,397.6-34.6,405.9z
	 M131.2,462.5c5.1-0.5,10.1-1.1,15.1-1.9c29.8,4,60.1,2.4,89.2-5c-16.3,8-33.1,13.8-50.1,17.5C166.8,471.9,148.6,468.2,131.2,462.5z
	 M174.6,453.6c12.5-4,23-9.1,36.2-10c12.3-0.9,24.4-3.1,36.2-7.1c4-1.4,7.9-2.9,11.8-4.7c7.9-1.6,15.7-3.5,23.4-5.7
	c-8.4,7-17.4,12.8-26.9,16.3C230.1,451.4,201.3,453.3,174.6,453.6z M262.6,407.5c6.5-4.8,12.8-9.9,18.9-15.2c12-5,23.7-10.6,35-16.9
	c-6.3,6.2-12.8,12.3-19.5,18.1C288.5,401,273.5,404,262.6,407.5z M296.1,409c5-3.9,10.1-10.5,15.8-13.1
	c-5.3,6.1-11.2,12.6-17.4,18.9c-3.9,1.4-7.9,2.7-11.9,4C287.2,415.7,291.7,412.4,296.1,409z M296.8,421.3c2.5-0.9,4.9-1.8,7.3-2.8
	c-3.9,2.4-7.8,4.7-11.9,6.9C293.9,424.2,295.3,422.7,296.8,421.3z M341.6,400.2c7-4.2,13.8-8.7,20.3-13.6c-2,2.3-4.1,4.6-6.2,6.8
	c-7.5,7.9-14.9,15.8-24.6,20.9c-9.2,4.8-18.6,9.3-28.1,13.2C316.6,419.5,329.6,410.4,341.6,400.2z M336.6,395.1
	c-3.6,2.2-7.3,4.2-11.1,6.2c-5.2,2.7-10.5,5.2-15.8,7.5c5.3-5.5,10.3-11.3,15.1-17.2c4.8-5.9,13-8.7,19.6-12.5
	c7.6-4.4,15.1-9.1,22.5-14C357.5,376,347.4,386,336.6,395.1z M422,281.7c0.6-1.7,1.2-3.5,1.8-5.3c3.3-5,6.4-10.1,9.3-15.4
	c-1.9,6.1-4,12.1-6.3,18.1c-6.5,17-13.5,38.6-27.1,51.1C408.7,314.8,416.2,298.5,422,281.7z M432,248.8c-0.1,0.2-0.2,0.4-0.3,0.6
	c2.6-7.7,6.2-14.1,10.5-21.8c-0.1,0.5-0.2,1-0.3,1.4c-1.1,3-2.5,9.6-4,12.4C435.9,245.3,433.8,245.3,432,248.8z M439,136.2
	c1.6,14.1,1.6,28.1-0.2,42.2c-0.1-14.7-1-28.9-0.3-43.6C438.7,135.3,438.8,135.8,439,136.2z M438.5,88.8c1.7,9.4,3.2,18.8,4.4,28.2
	c-1.8-7.7-3.7-15.4-4.1-23.3C438.7,92.1,438.6,90.4,438.5,88.8z M443.1,195.9c1.8-8.3,3-16.6,3.7-25.1c0.6,9.5,0.2,19.1-0.5,28.6
	c-2.2,8.7-5.7,16.5-10.6,25.3C437.1,214.9,440.9,205.6,443.1,195.9z M437.8,285.6c8.5-23.7,9.1-49.1,17.3-72.6
	c0.5,19-1.1,37.6-4.6,55.5c-4.4,7.5-9.2,14.7-14.4,21.7C436.7,288.6,437.3,287.1,437.8,285.6z M63-197.1c29-6.6,59-9,88.7-7.2
	c-18.7,0.9-37.3,3.4-55.6,7.5c-4.6,1-9.1,2.3-13.6,3.7c-19.7,3.1-39.3,7.4-58.5,12.3c-26.6,6.9-51.3,19.9-72.2,37.7
	c-5.5,3.2-10.8,6.5-16.1,10C-27.7-164.3,16.2-186.4,63-197.1z M-199.3,159.8C-200.8,89.2-185.1,18.4-146-41
	c-48.8,91.9-59.8,203.6-29.6,303.2C-191.6,230.4-198.5,195.2-199.3,159.8z M-180.3,211.3c-8.3-50.8-6.4-103.2,5-153.4
	c11.2-49.1,31.6-96.4,61.4-137.1c11.9-16.2,27.3-30.4,44.4-42.6c-2.2,2.5-4.4,5.1-6.5,7.8c-8.7,11-20.2,19.6-29.5,30.3
	c-33.6,38.5-53.6,87.1-60.2,137.6c-0.9,2.9-1.7,5.8-2.5,8.7c-12.8,47.9-14.1,98.9-2.5,147.2c5.6,23.3,14.1,45.9,25.3,67.1
	c6,11.4,12,22,17,33.8c4.7,11.1,10.2,21.8,16.5,32.1c-8.5-8.1-16.7-16.4-24.6-25.2c-8.1-9-18.8-19.3-23.3-30.6
	C-169.3,262.6-176.1,237.2-180.3,211.3z M120.3,485.7c-107.5-6.9-215.8-72-266.1-168.3c15.1,17.4,31.6,34.1,49.3,48.8
	c8,6.6,14.1,16,21.3,23.5c8,8.4,16.5,16.4,25.4,24c31.8,27,68.9,47.9,108.9,60.1c38,11.6,78.6,15.1,117.8,8.2
	c3.6-0.6,7.2-1.4,10.7-2.2c4.4,0.2,8.7,0.3,13.1,0.2C174.5,485.5,147.4,487.4,120.3,485.7z M239.2,469.3c-8.9,1.7-17.9,2.9-27,3.5
	c9.4-3.2,18.7-7.1,27.6-11.5c11.6-5.8,21.4-12,33.8-15.8c13.1-3.9,25.9-8.6,38.4-14.1C289.6,447.6,265,460.2,239.2,469.3z
	 M330.7,434.4c-13.7,7.9-28.2,15-43.1,20.8c5.2-2.9,10.3-5.9,15.4-9.2c11.8-7.6,23.1-16,33.8-25.2c12.1-10.4,27-17.5,39.8-27.1
	c9.8-7.3,19.2-15.2,28-23.7C384.9,395.6,360,417.5,330.7,434.4z M427.9,333.6c-17.6,22.9-39,43-62.8,59.8
	c9.5-10.4,18.3-21.4,26.4-32.9c7.3-7.6,14-15.8,20.1-24.4c4.7-6.7,9.1-13.7,13-20.9l0,0c7.6-8.4,14.7-17.3,21.2-26.6
	C441.3,304.2,435.3,319.2,427.9,333.6z M449.8,300.1c3-9.7,5.4-19.5,7.3-29.5c6.6-11.2,12.3-23,17-35.2
	C469.2,258.4,460.9,280,449.8,300.1z M469.7,227.7c-2.7,7.7-5.9,15.2-9.4,22.5c1.4-11.6,2.1-23.3,1.9-34.9
	c-0.2-7.9-2.3-16.6-0.3-24.1c2-7.7,3.8-15.5,5.2-23.4c3.1-11,5.6-22.2,7.4-33.5c3.2,16.6,5,33.4,5,50.3
	C479.4,199.1,474.5,214.2,469.7,227.7z M478,117.4c-2.2-8.8,0.1-19,0.1-28c0-1.7-0.1-3.4-0.1-5.1c4,20.2,6,40.7,5.8,61.3
	C482.3,136.1,480.3,126.7,478,117.4z"/>
</svg>
