<?xml version="1.0" encoding="utf-8"?>
<!-- Generator: Adobe Illustrator 20.0.0, SVG Export Plug-In . SVG Version: 6.00 Build 0)  -->
<svg version="1.1" id="Layer_1" xmlns="http://www.w3.org/2000/svg" xmlns:xlink="http://www.w3.org/1999/xlink" x="0px" y="0px"
	 viewBox="0 0 500 500" style="enable-background:new 0 0 500 500;" xml:space="preserve">
<path d="M483.4,197.2c-5.1-19.1-9.1-38.7-17-56.9c-16-36.8-43.4-67.9-76.8-90c-17.7-11.7-37-20.9-57.3-27.1
	c-20.7-6.4-43.2-11.2-64.7-13.4c-24-2.5-48.4-1.1-72,4.3c-38,8.7-72.9,27.9-100.7,55.2c-28.7,28.3-54.2,59.8-68.3,98
	c-14.1,38.2-19.1,82-12.9,122.3c2.7,17.9,8.4,35.2,17.1,51.1c4.1,7.6,8.9,14.4,12.4,22.3c3.9,8.9,8.5,17.6,13.8,25.8
	C97.4,452,173.3,492.7,248.1,493.3c24.2,0.2,48.3-3.8,71-11.8c56.4-10,110-47.7,134.6-98.1c0.6-0.8,1.2-1.6,1.8-2.5
	c24.5-34.6,31.8-74,34.8-115.5C491.9,242.5,489.3,219.4,483.4,197.2z M465.1,149.8c-11.9-23.4-27.5-45-45.7-63.8
	c-19.5-20.1-42-37.3-66.9-50.3C403.1,57.4,445.3,98.2,465.1,149.8z M302.3,21c45.1,12.2,85.7,38.1,117.3,72.2
	c16.3,17.5,30.3,37.2,41.2,58.6c5.2,10.2,9.7,20.8,13.4,31.7c3.7,10.8,3.2,24,3,35.2c-0.4-1-0.7-2.1-1.1-3.1
	c-2.6-23.2-9.6-45.8-20.8-66.4c-9.1-16.6-20.8-31.7-34.4-44.7c-7-6.7-15-12.3-21.7-19.4c-8-8.4-16.4-16.3-25.5-23.6
	c-28.6-23-62.7-38.1-99.3-42.2c-4.1-0.5-8.1-0.8-12.2-1C275.6,17.9,289,18.8,302.3,21z M461.9,217.1c-1.4-4.4-2.9-8.7-4.5-13
	c-1.3-5.8-2.6-11.5-4.2-17.2c-1.8-6.6-3.8-13.1-6-19.6c9.7,15.4,17.9,31.7,24,48.9c2,16.9,1.6,34.3-1.3,51.5
	c-0.6,2.1-1.2,4.2-1.9,6.3c-0.2-1.2-0.5-2.3-0.7-3.5C468.1,252.5,467.2,234.4,461.9,217.1z M424.2,378.6c-4.7,8.1-9,13.9-16.6,19.3
	c-7.2,5.1-14.8,9.8-22.5,14.2c3.6-5,7-10.2,10.1-15.5c14.4-10.7,27.5-23.3,38.8-37.6C431.1,365.7,427.9,372.3,424.2,378.6z
	 M424.3,390.9c-1.3,2.1-2.7,4.1-4.1,6.1c-3.9,4.3-8.1,8.4-12.5,12.3C412.8,402.8,418,396.2,424.3,390.9z M323.2,435.8
	c-7.6,5.2-17.7,6.3-26.6,8.1c-9.2,1.8-18.4,3.2-27.7,4.1c-3,0.3-6.1,0.6-9.1,0.8c-15.2-1.9-30.3-5.2-44.7-9.7
	c-0.2-0.1-0.3-0.2-0.5-0.3c14.5,2.3,29.2,3.3,43.9,3.1c25.3-0.4,50.3-4.7,73.8-12.6C329.2,431.5,326.3,433.7,323.2,435.8z
	 M340.9,437.1c-8.2,5.1-17.1,9-26.3,11.9c-1.3,0.2-2.5,0.3-3.8,0.4c4.9-2.9,9.4-5.9,14.9-7.5C330.8,440.4,335.9,438.8,340.9,437.1z
	 M304.8,447.1c-1.8,1-3.6,2.1-5.5,3.1c-4.2,0.2-8.5,0.3-12.8,0.3C292.6,449.6,298.7,448.5,304.8,447.1z M221.4,458.3
	c-4.6-1.6-9-3.3-13.4-5.3c9.7,0.9,19.6,5.3,29.5,6.7c11.7,1.7,23.6,2.1,35.3,1.4c-8.4,2.7-15.8,4.6-24.6,3.7
	C239.1,464,230,461.2,221.4,458.3z M233.2,467.9c-0.3,0-0.7,0-1,0c-0.2-0.1-0.4-0.2-0.6-0.3C232.1,467.7,232.6,467.8,233.2,467.9z
	 M62.8,196.5c0.1,2.9,0.2,5.9,0.3,8.8c-3.5,9.8-6.1,19.9-7.8,30.1C54.6,222.5,57.9,209.2,62.8,196.5z M56.2,202.8
	c1-9,2.5-17.9,4.7-26.6c1-2.3,2.1-4.6,3.2-6.8c-0.6,5.5-1,10.9-1.2,16.4C60.4,191.3,58.1,196.9,56.2,202.8z M60.7,232.6
	c0.9-5,2.1-9.9,3.5-14.7c0.6,5.2,1.3,10.3,2.1,15.5c-0.2,8.6,0.1,17.3,1,25.9c1.7,16.5,2.2,34.8,7.3,50.6
	c-7.8-16-13.3-33.1-16.4-50.6C56.7,250.9,59.1,240.9,60.7,232.6z M124.3,101.9c4.3-4.4,8.8-8.6,13.4-12.7
	c62.6-37.8,146.6-41,210.3-4.5c23.8,13.6,44.7,32.8,59.3,56.1c-9.2-11.3-19.7-21.4-31.1-30.5C344.4,85,306.7,67.6,266.3,62.5
	c-37.6-4.8-77.2,1-110,20.8c-15.6,9.4-29.3,21.9-40.1,36.6c-5.3,7.1-8.8,16.5-14.7,22.9c-7.7,8.3-14.6,17.3-20.7,26.8
	c2-6.9,4.2-13.7,6.8-20.4c2.4-6.1,7.1-11.7,10.9-17C106.4,121.4,115,111.3,124.3,101.9z M101.1,120.9c1.3-2.3,2.7-4.7,4.1-7
	c2.5-2.3,5-4.6,7.6-6.8C108.7,111.6,104.8,116.2,101.1,120.9z M434.3,208.1c0.7,3.6,1.2,7.2,1.6,11c3.8,39-3.5,79-17,115.5
	c3.1-14.7,4.9-29.6,5.3-44.6c0-1,0.1-1.9,0.1-2.9C432.8,261.7,436.6,234.8,434.3,208.1z M440.4,217.1c0.4,0.7,0.8,1.5,1.2,2.2
	c3.1,10.3,5.4,20.9,6.8,31.5c1.6,12-2,25.4-4.8,37.1c-2.9,12.1-6.7,24.1-11.3,35.7c-4.3,10.8-8.9,23.9-17,32.4
	c16.5-36.5,26.3-76.9,26.3-117C441.6,231.6,441.2,224.3,440.4,217.1z M180,435.4c-0.6-0.5-1.1-0.9-1.7-1.4c4.4,0.6,8.7,1,13.1,1.4
	c4.1,1.7,8.3,3.4,12.5,4.9c2.8,1,5.7,2,8.6,2.9c5,2.4,10.2,4.5,15.4,6.4c-9.6-0.3-18.2-0.9-27.2-4.4
	C193.6,442.4,186.7,439.1,180,435.4z M196.9,454.4c-4.8-1.5-9.6-3.2-14.3-5c3.1,0.6,6.3,1.2,9.5,1.7
	C193.7,452.2,195.3,453.3,196.9,454.4z M135.9,387.1c0,0,0.1,0.1,0.1,0.1c10.7,7.2,19.7,15.1,29.1,23.9c6.4,5.9,13.3,11.4,20.5,16.5
	c-1.1-0.4-2.1-0.9-3.2-1.4c-9.5-4.5-18.6-9.7-27.5-15.3C148.2,403.2,141.8,395.3,135.9,387.1z M152.5,415.2c-1.4-0.6-2.7-1.3-4.1-2
	c-2.1-1.9-4.2-3.8-6.2-5.7C146,409.9,149.8,412.3,152.5,415.2z M110.2,150.1c5-8.7,11.1-20,19.3-26.1c16.8-12.6,35.5-22.6,55.1-30.1
	c11.6-4.5,23.8-7.6,36.1-9.6c-26.8,5.2-52.8,19.9-74.2,36.6c-20.3,15.9-37.2,35.9-49.4,58.6C100.6,169.3,104.9,159.4,110.2,150.1z
	 M101.2,157.2c2.4-6.2,4.7-12.4,9.5-17.1C107.1,145.6,104,151.4,101.2,157.2z M112.8,340.7c6.9,10.2,12.6,21,19.4,31.3
	C124.6,362.4,118.2,351.8,112.8,340.7z M130.1,377c-0.9-0.7-1.8-1.4-2.8-2.2c-2.6-3.9-5-7.8-7.4-11.7
	C123.1,367.9,126.5,372.5,130.1,377z M120.6,341.7c-5.2-11.3-9.4-23-12.5-35c20.1,38.6,51.5,71.3,90.6,90.8
	c-20.9-6.1-40.4-16.5-56.7-30.8C133.9,359.6,125.2,351.5,120.6,341.7z M97.3,314.7c2.3,7.9,5.2,15.6,8.6,23.2
	c-10.3-20.4-18.6-41.8-25.1-63.6c-0.1-3-0.2-6-0.2-9c0-8.6,0.7-17.3,1.9-25.8C82.7,265.9,89.9,289.6,97.3,314.7z M87.5,243.7
	c1.3,8.9,2.1,17.1,2.5,26.1C88.5,261.2,87.7,252.4,87.5,243.7z M95,275.3c2.6,7.8,4.7,15.1,6.4,23.2c1.8,8.9,4.3,17.6,7.2,26.2
	C100.1,309,96.2,293.1,95,275.3z M280.2,92.4c-54.9-4.8-109.4,19.8-142.7,63.5c-35.3,46.3-41.6,107.3-18.4,160.5
	c-5.3-8.7-9.9-17.8-13.8-27.2c-3.6-8.5-3.2-20.3-3.2-29.4c0-45.8,19-92,51.3-124.5C184.2,104,236.1,78.7,280.2,92.4z M147.6,106.3
	c11-8.7,23.3-15.7,36.3-20.8c37.9-14.6,82.8-16.4,121-1.6C251,69.5,195.6,78.3,147.6,106.3z M97.5,267.8
	c-5.4-18.6-0.9-39.3,4.5-57.7c5.4-18.4,13.7-36,24.2-52c9.7-14.7,21.3-28.1,34.8-39.4c14.5-12.1,30.4-19.8,48.4-25.3
	C138.8,119.8,94.3,193.4,97.5,267.8z M183.3,383.2c-15.7-10.1-33.3-23.3-43.7-38.9c-24.3-36.3-35.9-80.6-26.8-123.8
	c8.4-39.8,33.1-75.2,66.9-97.7c16.5-11,35.1-18.8,54.4-23c10.4-2.2,21-3.3,31.5-3.3c11,0,26.2-0.3,36.2,4.8
	c37,18.6,71.2,51.4,90,88.3c16.7,32.9,20.6,69.9,11,105.7c-9.6,35.6-32.8,67.9-65,86.6c-31.4,18.2-69.3,25.1-105.3,22
	C215.1,402.3,197.9,392.6,183.3,383.2z M283,88.3c26.7,2.3,53.6,10.1,73,29.3c-11-6.5-22.5-12-34.6-16.2c-5.8-2-11.7-3.8-17.7-5.2
	C296.7,94.5,290,90.6,283,88.3z M352.7,103c-5.5-3-11.1-5.7-16.9-8.2c-5.7-3.9-11.7-7.4-18-10.5c-22-10.9-46.7-15.5-71.1-15.3
	c-25.1,0.2-50.6,5.3-73.5,15.8c-23,10.7-39,27.9-57.7,44.2c16.4-25,40.5-43.7,68.6-53.8c69.8-25.2,149.2,0.7,201.9,49.8
	C375.7,116.8,364.5,109.4,352.7,103z M102.4,179.6c9.4-17.1,21.7-32.5,36-45.7c-25.4,29-41.9,65.6-47,103.8
	c-1.3-10.4-1.7-20.7-1-31.2C93.6,197.2,97.7,188.2,102.4,179.6z M86.5,196.1c-1.7,14.3-6.6,27.7-8.7,42c-0.9,6.1-1.5,12.2-1.7,18.4
	c-2-8.1-3.7-16.2-5.1-24.4c0.3-12.4,1.6-24.8,3.8-37.1c2.7-14.8,12.5-27.9,21.8-39.4C91.6,168.6,88.1,182.2,86.5,196.1z M76.2,275.3
	c0.9,16.3,3.8,32.6,8.6,48.2c-5.4-13.2-8.5-25.8-9.8-40.1c-0.6-6.8-1.5-13.5-2.2-20.2C73.8,267.3,75,271.3,76.2,275.3z M83.4,297.3
	c8.4,23.3,19,45.9,31.7,67.1c-2.4-2.2-4.8-4.5-7.1-6.9c-3.6-3.7-7.9-7.6-10-12.3c-2.3-5.1-4.3-10.2-6.2-15.4
	C88.1,319.2,85.3,308.3,83.4,297.3z M124,378.4c5.1,7.6,10.4,15.1,16.1,22.2c-5.6-4.1-11-8.5-16.3-13.1c-5.9-7.4-11.2-15.2-16-23.3
	C113,369.2,118.4,373.9,124,378.4z M200,431.1c-7.8-4.6-15.3-9.9-22.4-15.6c15.9,8.1,33.1,13.1,50.7,15.5
	C219,431.9,209.2,432.3,200,431.1z M170.7,406.2c31.8,13.8,66,19.7,100.1,17.9c-5.8,1.4-11.6,2.6-17.4,3.6
	C224.5,427.8,195.9,421.4,170.7,406.2z M199.5,411.5c-13.5-4-26.7-9.2-39.3-15.7c-12-6.2-19.2-18.8-26.3-29.9
	c20.1,19.2,45.4,32.3,72.4,38.6c31.2,7.3,61.7,14.8,94,10.4c-1.5,0.6-3.1,1.2-4.6,1.7c-6.7,1.1-13.4,2-20.1,2.5
	C250,421.1,224.1,418.8,199.5,411.5z M295.8,421.4c8.2-1.3,16.3-3.1,24.4-5.3c-11.1,3.7-22.6,6.7-34.3,8.6
	C289.2,423.7,292.5,422.6,295.8,421.4z M319.1,411.5c1.5-0.8,3.1-1.6,4.6-2.4c32.1-11.9,58.1-38,75.8-66.8
	c-5.2,12.6-11.4,24.9-18.9,36.3c-3.9,6-7.1,10.2-13.5,13.6c-5.7,3.1-11.6,5.9-17.5,8.5C339.8,405,329.6,408.6,319.1,411.5z
	 M352.8,384.8c-7.7,6.4-16,12-24.7,17c-24.4,10.4-51.4,12.2-78.4,7.6c45-0.2,94.6-15.7,124.3-51.3c31.3-37.6,47.1-89.7,34.8-137.4
	c-15.5-60.1-45.5-86.6-89.4-114.8c17.8,6.2,35.4,14.9,50.1,26.8c11.5,14.2,20.9,30.1,28.4,46.8c8.1,18.3,13.9,37.5,17.4,57.2
	c3.6,20.5,2.2,40.1-1.9,60.4c-0.9,4.3-2,8.5-3.4,12.7C396.6,338.5,377.1,364.8,352.8,384.8z M391.5,156.3
	c11.2,16.1,18.5,34.8,22.5,54c-0.7-2.6-1.3-5.2-2.1-7.7C406.7,186.6,399.9,171,391.5,156.3z M411,183.2c-4.4-11.3-10.1-22-17.2-31.8
	c-7.7-10.6-17.6-18.8-26.2-28.5c40.8,33.3,64.1,88.5,56.1,140.8C421.6,236,421.2,209.5,411,183.2z M430,230.3
	c-3-38-22.7-77-49.9-102.6c13.7,10.7,25.6,23.4,35.5,37.6c3.4,4.9,6.4,9.8,8.9,14.8C429,196.5,430.7,213.4,430,230.3z M88.5,134.6
	c-6.2,13.6-13.6,26.4-20.2,39.7c0.1-1.2,0.2-2.5,0.4-3.7c0.9-7.6,1.7-13.5,5.8-19.9c4-6.2,8.3-12.1,12.9-17.8c1.5-1.8,3-3.5,4.5-5.3
	C90.7,129.9,89.6,132.3,88.5,134.6z M76.4,167.4c-1.5,5-2.8,10.1-4,15.2c-0.9,4.2-3,8.1-4.9,12.1c0-3.2,0-6.4,0.1-9.6
	C70.5,178.9,73.5,173,76.4,167.4z M68,206.1c0.2-0.5,0.3-1,0.5-1.5c-0.1,1.1,0.3,10,0.2,11.1c0-0.3-0.4-2.5-0.6-4.7
	C67.9,208.8,68,206.4,68,206.1z M79.7,329c7.6,12.2,14.3,24.9,22,37.1c-9.9-10.8-18.9-22.4-26.6-34.8c-5.4-8.6-10-17.6-14.1-26.9
	c-1.5-8-2.5-16.2-3-24.3C62.9,297.3,70.2,313.8,79.7,329z M89,358.5c8.9,10.8,18.6,20.9,29,30.2c4.1,5.2,8.5,10.2,13,15
	c-10-6.1-19.5-13.1-28.2-21c-10.4-9.4-19.6-19.9-27.4-31.3c-3.8-8.8-7-17.8-9.6-27C72.4,336.4,80.2,347.8,89,358.5z M130.2,408.8
	c4.4,2.6,8.8,5,13.4,7.3c2.6,2.4,5.3,4.8,8,7.1c-6.3-1.8-12.5-3.8-18.6-6.3c-4.6-1.9-9.2-4-13.7-6.3c-2.6-1.4-8.8-6.6-12.7-7.7
	c-5.7-7-11-14.3-15.8-21.9c-1.8-2.8-3.5-5.7-5.1-8.6C98.7,386.6,113.7,398.9,130.2,408.8z M129,420.6c-0.1,0-0.1-0.1-0.2-0.1
	c7.4,3.2,15,5.8,22.8,8c3.1,0.9,6.3,1.6,9.5,2.3c6.2,4.7,12.5,9.1,19.1,13.1c-8.8-1.9-18-3.7-26-8
	C145.5,431.4,137.1,426.3,129,420.6z M131.6,428.2c-1.2-0.4-2.2-1.1-3.1-2.1C129.6,426.8,130.6,427.5,131.6,428.2z M211,463.1
	c2.7,1.5,5.5,3,8.3,4.3c-27.2-2.4-53.3-13.1-75.5-29.1C166.5,446.9,188,456.7,211,463.1z M234.9,454.5c2.9,0,5.8-0.1,8.6-0.2
	c3.1,0.8,6.3,1.5,9.5,2.1C247,456.2,240.9,455.5,234.9,454.5z M226.8,435.6c3.2-0.2,6.3-0.4,9.5-0.7c5.6-0.6,11.2-1.3,16.8-2.3
	c1.1,0,2.3,0,3.4,0c36.5-0.8,72.5-11.8,104.4-29.1c-5.7,6.1-11.7,11.9-18.1,17.3C306.3,435.1,265.7,439.8,226.8,435.6z M359.9,411.7
	c4.3-4.3,8.4-8.8,12.2-13.5c3.8-4.6,10.2-7.4,15.1-10.8c3.7-2.6,7.2-5.4,10.7-8.2c-4.6,7.8-9.6,14.6-15.3,21.1
	c-8.3,5.5-17,10.3-25.9,14.5C357.8,413.7,358.9,412.7,359.9,411.7z M384.1,382c16.3-24.8,24.7-52.1,34.6-79.7
	c-1.2,15.6-3.9,31.2-8.2,46.2c-1.7,5.9-3.2,15.4-7.9,19.5C396.7,373,390.6,377.7,384.1,382z M412,372.7c4.7-6.9,8.7-13.5,14.4-19.7
	c6-6.5,11.6-13.3,16.8-20.4c-0.9,3.2-1.8,6.4-2.9,9.6c-1,1.5-2,3-3,4.5c-9.4,13.6-20.5,26.2-32.9,37.1c-0.9,0.8-1.9,1.6-2.9,2.4
	C404.9,381.6,408.8,377.3,412,372.7z M434.2,332.3c7.1-16.3,12.5-33.4,16-50.9c-0.1,7.8,0.4,17.1-2.4,24.4
	C444.3,315.1,439.7,324,434.2,332.3z M446.1,217.4c-3.1-10-6.9-19.7-11.5-29.1c6.5,11.2,12.9,23.2,15,36
	C448.5,222,447.3,219.7,446.1,217.4z M424.7,165c-4.6-12.2-10.7-23.8-18.3-34.4c-21.9-30.8-54.5-53.4-90.1-65.3
	c-51.9-17.5-110.2-13.7-159.7,8.9c9.6-6.9,19.6-13.2,30.1-18.6c6.5-3.3,13.2-6.3,20-8.9c6.4-2.5,13-2.8,19.8-3.1
	c13.4-0.5,26.9,0.3,40.1,2.5c28.6,4.7,55.9,15.4,80.9,29.9c47.5,27.4,96.2,73.8,101.9,131.2C443,191.8,434,178.4,424.7,165z
	 M180.5,46.2c9.6-3.9,19.7-6.8,30-8.3c3.3-0.5,6.6-0.8,9.9-1.1C207.3,40.8,193.7,42.2,180.5,46.2z M232.9,38.6
	c3.7-0.9,7.5-1.6,11.3-2.2c12,0.5,24,2.1,35.7,4.7c11.2,2.5,22.4,5,31.4,12.4C286.4,43.9,259.7,38.4,232.9,38.6z M318.8,54
	c24,10.5,46.3,25,66.2,41.9c-9.7-7.8-19.9-14.9-30.5-21.3c-5.5-3.3-11.1-6.4-16.9-9.4c-4-2-11.9-4.1-14.7-7.3
	C321.7,56.5,320.2,55.3,318.8,54z M419.3,129.7c7.9,9.1,15.9,17.9,19.8,29.5C433.4,148.7,426.7,138.9,419.3,129.7z M434.3,135
	c-4.2-8.7-9.1-17.1-14.6-25c23.5,23.4,39.6,52.4,47.4,83.6c-2.7-5.8-5.7-11.5-8.8-17.1c-4.1-7.2-8.5-14.3-13.2-21.2
	C440.6,148.7,437.7,142.1,434.3,135z M421,120.8c2,3.4,3.9,6.9,5.7,10.4c-17.5-20.9-37.6-39.8-59.9-55.5c-10-7-20.5-13.4-31.4-19
	c10.6,4.3,21,9.2,31,14.7c10.5,5.8,23.1,12.1,32.1,20.4C407.1,100.7,414.6,110.4,421,120.8z M298.3,39.6c-2.7-1.4-5.4-2.8-8.2-4
	c30.9,3.8,60.4,16.5,85.3,35.3C351.5,57.1,325.4,46.3,298.3,39.6z M303.1,32.7c-7.1-1.4-14.2-2.4-21.4-2.9
	c-7.5-0.5-14.5-1.7-21.9-2.9c-14.8-2.4-29.9-2.7-44.8-1.5c21.9-3.1,44-4,66-0.7c20.4,3,39.6,9.7,57.5,19.2
	C327.1,39,315.3,35.1,303.1,32.7z M250.9,30.6c-4.5,0.5-9,0.7-13.5,0.9c-20.9-0.3-41.7,2.1-61.8,7.5c1-0.5,2-1,2.9-1.4
	C199.6,28,228.3,28.1,250.9,30.6z M182.1,50.7c2.4-0.7,4.9-1.2,7.3-1.8c-20.1,9.7-38.7,22.4-55.4,37.2c-6.7,4.1-13.1,8.5-19.2,13.4
	c5.7-7.8,11.9-15.2,18.9-22c6.4-6.3,13.3-12.7,21.5-16.5C163.8,56.9,172.8,53.4,182.1,50.7z M152.1,56.1
	c-10.3,7.1-21.6,12.4-31.8,19.8c9.5-8.7,19.7-16.5,30.6-23.4c6.4-2.7,13-5.1,19.7-7.1C164.1,48.5,158,52.1,152.1,56.1z M148.9,48.1
	c-11.1,4.7-21.9,10.5-32.3,17.4c2.4-2.4,5-4.6,7.6-6.8c9.6-5.4,19.6-10,29.2-13.8c0.7-0.2,1.3-0.5,2-0.7
	C153.2,45.4,151,46.7,148.9,48.1z M125.5,65.1c-2.9,2.5-5.8,5-8.6,7.6c-10.6,9.8-19.3,21-28.6,31.9C91,99.3,94,94,97.3,89
	C103.9,79.1,114.5,71.4,125.5,65.1z M99.7,99.7c8.8-8.6,18.3-16.5,28.5-23.4c-10.5,10.7-19.5,22.5-27.3,35.1
	c-3.6,3.4-7.1,6.9-10.4,10.6c-6.1,6.8-11.8,13.9-16.9,21.5c0.7-2.9,1.6-5.8,2.4-8.6c0.8-1.5,1.6-3.1,2.4-4.6
	C84.3,119.3,90.9,108.4,99.7,99.7z M76.8,118.4c-10.2,13.2-18.9,27.5-25.9,42.6c7.2-23.7,19.2-45.7,36.2-64.2
	C83.1,103.7,79.7,111,76.8,118.4z M70,136.3c-5.8,12.2-10.4,25-13.7,38.2c-6.3,14.3-10.9,29.3-13.6,44.7c0-0.7-0.1-1.5-0.1-2.2
	c0-8.3,0.5-16.6,1.6-24.8C50.1,172.5,58.8,153.6,70,136.3z M51.3,244.3c1.4,13.9,1.6,27.8,2.7,41.6c-1.7-5.1-3.1-10.2-4.5-15.4
	C49.5,261.8,50.1,253,51.3,244.3z M47.9,235.1c-1.1,6.3-1.9,12.5-2.3,18.8c-0.6-3-0.9-5.9-0.8-8.7c0.5-14.9,2.9-29.6,7-43.9
	C50.5,212.7,49.8,223.9,47.9,235.1z M48.2,307.3c1.5,9.3,3.5,18.6,5.9,27.8c-7.2-15.2-12.5-31.3-15.6-47.9
	c-4.1-22.1-4.2-44.7-0.7-66.7c0.1,3.4,0.2,6.9,0.4,10.3c0.8,11.1,1.3,22.2,2,33.3C41.1,278.8,43.8,293.3,48.2,307.3z M53,306
	c-0.7-4.5-1.3-9.1-1.9-13.7c1.6,4.4,3.3,8.8,5.2,13.1c0.5,3.1,1.1,6.2,1.9,9.4c1,4.3,2.2,8.6,3.4,12.9C58.2,320.6,55.4,313.4,53,306
	z M71.2,354c4.6,10.4,9.8,20.4,15.9,30c-6.1-6.8-11.9-13.9-17.1-21.5c-4.9-7-7.2-14.2-9.6-22.4c-0.8-2.7-1.5-5.4-2.2-8.1
	C62.1,339.7,66.4,347,71.2,354z M115.1,419.6c-8.7-5.1-19.3-10.8-25.5-18.9c-5.8-7.5-10.8-15.6-15.1-24.1
	C86.8,392,101.4,405.5,115.1,419.6z M129.5,433.2c7.2,6.1,14.9,11.7,23,16.7c15.3,9.3,32.1,16.3,49.6,19.9c9.5,2,19.3,2.9,29,2.9
	c10.6,4.2,21.6,7.4,32.8,9.3c-57.9,6.1-117.4-20.2-158.2-62.5C113.3,424.3,122.8,427.5,129.5,433.2z M243.5,472.1
	c3.5-0.3,7-0.7,10.4-1.3c20.5,2.7,41.3,1.6,61.4-3.4c-11.2,5.5-22.7,9.5-34.4,12C268,478.6,255.5,476.1,243.5,472.1z M273.4,466
	c8.6-2.7,15.8-6.3,24.9-6.9c8.5-0.6,16.8-2.1,24.9-4.9c2.8-0.9,5.5-2,8.1-3.2c5.4-1.1,10.8-2.4,16.1-3.9
	c-5.8,4.8-11.9,8.8-18.5,11.2C311.5,464.5,291.7,465.8,273.4,466z M333.9,434.3c4.5-3.3,8.8-6.8,13-10.4c8.3-3.4,16.3-7.3,24.1-11.6
	c-4.4,4.3-8.8,8.5-13.4,12.4C351.7,429.8,341.4,431.9,333.9,434.3z M356.9,435.3c3.4-2.7,7-7.2,10.9-9c-3.7,4.2-7.7,8.7-12,13
	c-2.7,1-5.4,1.9-8.2,2.7C350.8,439.9,353.9,437.7,356.9,435.3z M357.4,443.8c1.7-0.6,3.4-1.2,5.1-1.9c-2.7,1.6-5.4,3.2-8.2,4.8
	C355.4,445.8,356.4,444.8,357.4,443.8z M388.2,429.3c4.8-2.9,9.5-6,13.9-9.4c-1.4,1.6-2.8,3.1-4.3,4.7c-5.1,5.4-10.2,10.9-16.9,14.4
	c-6.3,3.3-12.8,6.4-19.3,9.1C371,442.6,379.9,436.3,388.2,429.3z M384.7,425.8c-2.5,1.5-5,2.9-7.7,4.3c-3.6,1.9-7.2,3.6-10.9,5.2
	c3.6-3.8,7.1-7.8,10.4-11.8c3.3-4.1,8.9-6,13.5-8.6c5.3-3,10.4-6.2,15.4-9.6C399.1,412.6,392.2,419.5,384.7,425.8z M443.5,347.8
	c0.4-1.2,0.8-2.4,1.2-3.6c2.2-3.4,4.4-7,6.4-10.6c-1.3,4.2-2.7,8.3-4.3,12.4c-4.5,11.7-9.3,26.5-18.6,35.1
	C434.3,370.6,439.5,359.4,443.5,347.8z M450.3,325.2c-0.1,0.1-0.2,0.3-0.2,0.4c1.8-5.3,4.3-9.7,7.2-15c-0.1,0.3-0.2,0.7-0.2,1
	c-0.8,2-1.7,6.6-2.7,8.6C453,322.8,451.6,322.8,450.3,325.2z M455.2,247.8c1.1,9.7,1.1,19.3-0.1,29c-0.1-10.1-0.7-19.9-0.2-30
	C454.9,247.2,455,247.5,455.2,247.8z M454.8,215.2c1.2,6.4,2.2,12.9,3,19.4c-1.2-5.3-2.5-10.6-2.8-16
	C455,217.4,454.9,216.3,454.8,215.2z M458,288.8c1.3-5.7,2.1-11.4,2.6-17.2c0.4,6.5,0.2,13.1-0.3,19.7c-1.5,6-3.9,11.3-7.3,17.4
	C453.8,301.9,456.5,295.5,458,288.8z M454.4,350.5c5.8-16.3,6.2-33.8,11.9-49.9c0.3,13.1-0.8,25.8-3.2,38.2
	c-3,5.1-6.4,10.1-9.9,14.9C453.6,352.6,454,351.5,454.4,350.5z M196.7,18.6c20-4.6,40.6-6.2,61-5c-12.9,0.6-25.7,2.3-38.2,5.1
	c-3.2,0.7-6.3,1.6-9.3,2.5c-13.6,2.1-27,5.1-40.2,8.5c-18.3,4.7-35.3,13.7-49.7,25.9c-3.7,2.2-7.5,4.5-11.1,6.9
	C134.3,41.1,164.5,26,196.7,18.6z M16.3,264c-1.1-48.5,9.7-97.2,36.6-138.1c-33.6,63.2-41.1,140-20.3,208.4
	C21.6,312.5,16.8,288.3,16.3,264z M29.3,299.4c-5.7-34.9-4.4-71,3.5-105.5c7.7-33.8,21.7-66.3,42.2-94.3
	c8.2-11.2,18.8-20.9,30.5-29.3c-1.5,1.7-3,3.5-4.4,5.4c-6,7.5-13.9,13.5-20.3,20.8c-23.1,26.5-36.9,59.9-41.4,94.6
	c-0.6,2-1.2,4-1.7,6c-8.8,33-9.7,68-1.7,101.2c3.8,16,9.7,31.6,17.4,46.1c4.1,7.8,8.2,15.1,11.7,23.3c3.3,7.6,7,15,11.3,22.1
	c-5.8-5.6-11.5-11.3-16.9-17.3c-5.6-6.2-12.9-13.2-16-21C36.9,334.7,32.2,317.2,29.3,299.4z M236,488.1
	c-73.9-4.8-148.4-49.5-182.9-115.7c10.4,11.9,21.7,23.4,33.9,33.5c5.5,4.5,9.7,11,14.6,16.1c5.5,5.8,11.4,11.3,17.5,16.5
	c21.9,18.5,47.4,32.9,74.8,41.3c26.1,8,54,10.4,81,5.7c2.5-0.4,4.9-0.9,7.4-1.5c3,0.1,6,0.2,9,0.2
	C273.3,487.9,254.6,489.3,236,488.1z M317.8,476.8c-6.1,1.2-12.3,2-18.5,2.4c6.5-2.2,12.8-4.9,19-7.9c7.9-4,14.7-8.3,23.2-10.8
	c9-2.7,17.8-5.9,26.4-9.7C352.4,461.9,335.5,470.6,317.8,476.8z M380.7,452.8c-9.4,5.4-19.4,10.3-29.6,14.3c3.6-2,7.1-4.1,10.6-6.3
	c8.1-5.2,15.9-11,23.2-17.3c8.3-7.1,18.5-12,27.4-18.6c6.7-5,13.2-10.5,19.2-16.3C418,426.1,400.9,441.2,380.7,452.8z M447.5,383.5
	c-12.1,15.7-26.8,29.6-43.2,41.1c6.5-7.2,12.6-14.7,18.1-22.6c5-5.3,9.6-10.9,13.8-16.8c3.3-4.6,6.2-9.4,8.9-14.4c0,0,0,0,0,0
	c5.2-5.8,10.1-11.9,14.5-18.3C456.7,363.3,452.6,373.6,447.5,383.5z M462.6,360.5c2.1-6.6,3.7-13.4,5-20.3
	c4.5-7.7,8.5-15.8,11.7-24.2C475.9,331.8,470.2,346.7,462.6,360.5z M476.3,310.7c-1.9,5.3-4.1,10.4-6.5,15.5c1-8,1.5-16,1.3-24
	c-0.1-5.4-1.6-11.4-0.2-16.6c1.4-5.3,2.6-10.7,3.5-16.1c2.1-7.6,3.9-15.3,5.1-23c2.2,11.4,3.5,23,3.5,34.6
	C483,291,479.6,301.4,476.3,310.7z M482,234.9c-1.5-6,0-13,0-19.3c0-1.2-0.1-2.3-0.1-3.5c2.8,13.9,4.1,28,4,42.1
	C484.9,247.7,483.6,241.2,482,234.9z"/>
</svg>
